<svg xmlns="http://www.w3.org/2000/svg" viewBox="0 0 822.72 970.17">

<title>artSvgIcon</title>
<g id="fixd-color">
    <path fill="#333" d="M0,0H822.72V970.17H3.15Z"/>
</g>
<g id="skin-color">
<path class="cls-1" fill="rgb(245, 211, 166)" d="M314.3,358.34l140.25,1.32a28.84,28.84,0,0,1,27.32,27.83q1.61,53,3.19,106.08c-16.18,42.13-57.9,69-102.51,66.3-43.35-2.65-80.71-32.75-92.76-74.89q.58-43.32,1.19-86.64a69.08,69.08,0,0,1,6-23.15c3.81-8.32,7.36-11.39,9.19-12.76A25.67,25.67,0,0,1,314.3,358.34Z"/>
<path class="cls-1" fill="rgb(245, 211, 166)" d="M372.85,585.49q.13,27.19.26,54.38c-10,3.08-20.72,6.77-31.92,11.24-11.6,4.62-22.25,9.47-31.91,14.29a180.9,180.9,0,0,0,48.38,18.26c11.54,2.53,24.32,5.23,41.23,3.7a122,122,0,0,0,41.73-12A130.3,130.3,0,0,0,489,634L486,541.06a130.07,130.07,0,0,1-113.11,44.43Z"/>
<path class="cls-1" fill="rgb(245, 211, 166)" d="M269,830.68a111.8,111.8,0,0,1,11.58-9.87c6.22-4.62,8.8-5.52,10.38-6a26.62,26.62,0,0,1,10-.68c2.47.26,4.06.42,5.79,1.36,4.1,2.23,5.4,6.86,5.79,8.51,0,2,.11,4,.17,6Z"/>
<path class="cls-1" fill="rgb(245, 211, 166)" d="M569.45,665.91a290.74,290.74,0,0,0-54.64,55.15c-9.22,12.22-25.29,33.86-37.28,66.39a239.18,239.18,0,0,0-11.23,41.87L608.43,829q.6-12.18,1.21-24.35c.26-12,.18-24.77-.36-38.12-.47-11.39-1.23-22.3-2.22-32.68a136,136,0,0,0-20.76-48A134,134,0,0,0,569.45,665.91Z"/>
<path class="cls-1" fill="rgb(245, 211, 166)" d="M259.57,698.51a105.81,105.81,0,0,0-12.17,15.83,122,122,0,0,0-9,17.87,225.84,225.84,0,0,0-10.6,32.17,265.67,265.67,0,0,0-6.89,32.17,244.88,244.88,0,0,0-2.56,34.3l17-.25a87.34,87.34,0,0,1,13.71-19.32q1-19.59,2.63-40C253.78,746,256.44,721.75,259.57,698.51Z"/></g>
<g id="cloth-color">
<path class="cls-1" fill="#52644c" d="M290.13,686.85q-3.09,18.28-5.62,37.79c-2.88,22.34-4.85,43.77-6.13,64.17a54.06,54.06,0,0,1,18.05-3.07c5.47,0,15.73.19,26,7a43.25,43.25,0,0,1,16,19.58,42.15,42.15,0,0,1,2.55,9c-.11,2.84-.23,5.67-.34,8.51l97.7-.34a293.1,293.1,0,0,1,106.3-178.38,109.93,109.93,0,0,0-16.15-6,108.71,108.71,0,0,0-11.81-2.68,155.15,155.15,0,0,1-15.89,21.63c-7.13,8.13-27.26,30.53-61.72,43-27.46,9.91-50.66,8.67-62.51,7.92-31.08-2-54.5-12.34-66.73-17.88A212.18,212.18,0,0,1,290.13,686.85Z"/></g>
<g id="bg-color">
<path class="cls-1" fill="currentColor" d="M153,142l523.66,2,2.55,684.26-43.66,1q.64-23.6.26-49c-.29-18-1-35.43-2-52.09a176.71,176.71,0,0,0-29-60.77c3.34-83.46,3.7-170.09.37-259.65q-.89-23.7-2.09-47.07a146.73,146.73,0,0,0-13.68-50c-11.36-23.78-26.28-38.25-36.3-47.8a186.35,186.35,0,0,0-44.82-31.81,170.53,170.53,0,0,0-66.48-17.18,168.57,168.57,0,0,0-71.44,12.16,173.83,173.83,0,0,0-48.46,30.47c-37,32.81-50.91,73.4-56.21,93.51q-2.56,156.26-5.14,312.5a139.35,139.35,0,0,0-27.91,26c-16.89,20.79-23.1,41-28.94,60.6a282.5,282.5,0,0,0-11.57,81.36H148.17Q150.6,486.26,153,142Z"/>
<path class="cls-1" fill="currentColor" d="M73.79,74.09l674.72.17q.35,411.11.68,822.21l-674.55-.76q-.39-392.57-.77-785.11l48,.2Q120.22,485.89,118.55,861l589-.51-1.44-747.24L73.87,110.6Q73.83,92.35,73.79,74.09Z"/>
<path d="M1668.85,413.15"/>
</g>
</svg>