<svg xmlns="http://www.w3.org/2000/svg" viewBox="0 0 879.88 1020.88">
<title>danceSvgIcon</title>

<g id="fixed">
<path fill="#333" d="M407,320.36c5.16-8.95,11.66-20.43,15.15-37.1a111.57,111.57,0,0,0,2.21-26.9A105.68,105.68,0,0,0,413.85,213c-10.7-21.75-26.61-33.56-34.21-39.07s-44.08-30.57-90.9-21.95c-25.89,4.76-43.55,17.77-50.8,23.23,0,0-17.19,13-29.11,30.38A142,142,0,0,0,200,220.36c-.84,1.69-1.91,4-4,8.51-2.63,5.62-3.95,8.43-4.77,10.32-2.47,5.74-3.53,10.11-5.46,18.07-2.34,9.64-2.1,11.43-4.62,21.7-.9,3.65-1.67,6.35-3.19,11.74,0,0-5.89,20.78-14.05,43.66-.44,1.25-1,2.59-2,5.28a38.25,38.25,0,0,1-2.58,5.89,27,27,0,0,1-2.81,3.9,104.12,104.12,0,0,1-7.4,8.29c-7.76,7.52-19.41,13.66-19.41,13.66-12.71,6.7-23.33,9.19-39,12.86-9.12,2.14-13.81,3.21-20.43,3.64a189.77,189.77,0,0,1-22.73-.14,96.33,96.33,0,0,0-10.37-.31c-1.71,0-3.09.11-4,.17a22.86,22.86,0,0,0-3.89.79,25.53,25.53,0,0,0-2.45.87,26.71,26.71,0,0,0-11.62,9.83A23,23,0,0,0,12.06,409a24.59,24.59,0,0,0,4.51,15.57,31.9,31.9,0,0,0,13,10.81,254,254,0,0,0,51.23,18.55c11.31,2.51,25.08,5.5,43.87,6.6a197,197,0,0,0,41.11-1.15c13-1.82,24.35-4.87,38.55-9.83,27.83-9.72,47.52-20.11,67.53-30.51,76.37-39.67,87.69-43.12,106.29-61.45A175.58,175.58,0,0,0,407,320.36Z" transform="translate(0.1 -0.01)"/>
<path fill="#333" d="M419.21,14c-6.21,3.58-36.65,22-47.32,60.93a101.94,101.94,0,0,0,4.09,65c13.95,33.7,41.76,48.67,51.06,53.1,6,2.85,45.88,21.15,88.17,1.36,27.77-13,41.38-35.27,46.3-44.59,3.2-6.06,22.31-43.83,4.77-86.47-18.16-44.1-60.57-57-67.07-58.89C492,2.37,455.78-7.12,419.21,14Z" transform="translate(0.1 -0.01)"/>
<path fill="#333" d="M297.68,396l167-79.91q34.83,1,71.49,1,35.83,0,70-1c3.95-.3,10-.84,17.33-1.81,16-2.13,25.51-4.67,37.18-7,13.26-2.65,22.7-3.7,38.43-5.45,7-.77,32.16-3.45,65.86-3.87,7.56-.1,13.83-.06,18.13,0a71.43,71.43,0,0,1,20.74,6.29c5.38,2.58,12.84,6.26,19.69,14.22A50.47,50.47,0,0,1,834,338.4a51.22,51.22,0,0,1,.85,20.43c-2.6,16.34-12.48,26.86-21.7,36.68-5,5.34-13.78,14.52-28,21.61-7.53,3.75-16,5.95-32.52,10.18-11.61,3-21.35,5.09-28.21,6.51-10.46,2.27-19.34,4-26.05,5.23-22.58,4.18-40.49,6.57-51.7,8-7,.92-12.93,1.63-17.1,2.12l-86.3-2.55q5.36,31,10.72,62A1714.53,1714.53,0,0,0,683,692.45,1714.76,1714.76,0,0,0,879.78,899.26c-2.51,7.8-24,70.93-91.21,95.83-61.85,22.9-115-4.15-123.23-8.52a211.91,211.91,0,0,1-226.72-1.7c-12.4,9.21-53.14,37-111.83,36-54.46-1-92.11-26.3-104.94-35.81-6.06,3.38-71.08,38.2-138.64,5.36C30.65,964.85-2.16,908.69,0,847.68c42.13-3.55,144.72-17.88,244.57-94C335.93,684.12,377.18,599.27,393.4,560l-25.25-34L316.74,626.06,186,691.1c-31,4.09-60.93-12.76-73.18-40.87-11.66-26.73-5-58.41,16.68-78.63l84.68-43.07Z" transform="translate(0.1 -0.01)"/>
<path fill="#333" d="M402.46,345.88q5.57-47.56,11.14-95.14l237.27-50.38a211.29,211.29,0,0,1,97.36,113.87l86.64,47.32A203.44,203.44,0,0,1,830,407.94c-3.78,16.95-16.54,74-62,100.17-15.11,8.67-26.89,9.95-29.62,10.21-26,2.44-45.94-11.68-52.59-16.85l-7.66-12.26a69.13,69.13,0,0,0,.51,11.75,70.15,70.15,0,0,0,3.06,13.27c3,9,26,72.32,58,159.07a195.07,195.07,0,0,1,5.36,90Z" transform="translate(0.1 -0.01)"/>
</g>
<g id="cloth">
<path class="cls-2" fill="currentColor" d="M780.74,369.72c2-1.77,14.27-12.86,10.56-21.27-2.76-6.24-12.63-7.2-14.13-7.32-16.68.15-34.43.92-53.11,2.55a684.54,684.54,0,0,0-84.76,12.77q-16.23,1.82-33.19,3.06A869.64,869.64,0,0,1,473.34,359L325.26,432,245.6,561.21l-90.39,46c-.85,1.26-7.24,11-3.57,22.47,3.15,9.85,12.45,17,23.49,17.87l109.78-54.64Q323,518.83,361,444.79q34,44.41,67.91,88.85a272.47,272.47,0,0,0,80.69-26L489.68,400.87l136.85,4.6c17.38-2.4,32.12-4.66,43.41-6.47,12.34-2,28.43-5.06,60.59-11.23,1.65-.32,11-2.15,23.15-5.79C772.75,376.24,778,372.19,780.74,369.72Z" transform="translate(0.1 -0.01)"/>
<path class="cls-2" fill="currentColor" d="M434.15,577.3A535.69,535.69,0,0,1,290,767.51C194.47,847.43,95.37,873.18,47.21,882.4c1.4,5.19,15.31,53.44,63.58,72,38,14.61,82.07,5,112.59-24.51,8,8.77,39.91,41.62,91.92,46.73,69.28,6.8,115.39-41.42,120.76-47.24,9.89,9.37,47.51,42.77,106.22,46,66.36,3.61,111.06-34,120-41.87C668,938.54,697.8,964,741.43,961c54.26-3.68,82.54-48.13,85.27-52.59A1785.77,1785.77,0,0,1,632.15,698.06,1781,1781,0,0,1,525.94,547.43a266.46,266.46,0,0,1-91.79,29.87Z" transform="translate(0.1 -0.01)"/>
<path class="cls-2" fill="currentColor" d="M451.06,322.61l7-37.4,184.09-38.55a162.56,162.56,0,0,1,52.43,55.69c-6.1.61-15.35,1.68-26.55,3.57-16.34,2.75-17.45,4-31.12,6.27a344,344,0,0,1-43.3,4.25c-10.12.47-18.66.52-24.91.46l-104-.79Z" transform="translate(0.1 -0.01)"/>
<path class="cls-2" fill="currentColor" d="M543.3,446.66q5.36,31,10.72,62c22.35,36.77,47.75,75.45,76.62,115.3,24.35,33.62,48.66,64.6,72.4,93-.29-3.37-.75-7.85-1.53-13.1-.52-3.52-1.23-8.3-2.55-13.87a141.25,141.25,0,0,0-5.45-17.19c-4.31-11.77-8-20.53-8.17-20.94-3.45-8.21-8.32-20.73-18-45.79-5.64-14.52-8.51-21.94-11.32-29.87-4.29-12.12-3.73-11.56-9.47-27.93-2.9-8.27-4.81-13.46-7.21-21.69-1.86-6.37-3.17-11.69-4-15.29-.22-1.58-.52-3.92-.76-6.75A107.33,107.33,0,0,1,636.91,469a99.64,99.64,0,0,1,8.16-21.74l-15.47,1.91Z" transform="translate(0.1 -0.01)"/>
</g>
</svg>