<svg id="圖層_1" data-name="圖層 1" xmlns="http://www.w3.org/2000/svg" viewBox="0 0 879.78 1020.85">
    <defs>
        <style>.cls-1{fill:none;stroke:#231815;stroke-miterlimit:10;stroke-width:44px;}</style>
    </defs>
    <title>danceIcon</title>
    <path class="cls-1" d="M402.28,209.26c-18.87,1.51-32.82,9.17-38.3,12.25-28.33,15.92-41,41.5-47.49,55.15-10.85,22.71-6,26.92-19.92,70.47-8.79,27.53-13.19,41.29-19.91,50.55-25.45,35.05-70.6,43-87.32,46-32.68,5.76-53.05-.11-53.62,3.06-1,5.42,56.54,32.74,122.56,27.58,34.4-2.69,68.89-20.18,137.87-55.15,61-30.91,73.71-43.94,82.72-56.68,7.58-10.72,37.12-52.5,19.92-96.51C483.23,226.13,438,206.38,402.28,209.26Z" transform="translate(-101.75 -36.32)"/>
    <path class="cls-1" d="M413,451.3l157.79-76.6c19.9-.1,35.88-.05,46,0,63,.34,83.17,1.82,116.43-3.06,14.43-2.12,14.57-3,32.17-6.13a599,599,0,0,1,116.43-9.19c1,.06,22.51,1.62,30.63,18.38,7.35,15.15-2,30.84-4.59,35.24-11.69,19.65-34.22,26.05-52.09,30.63a944.54,944.54,0,0,1-125.61,23l-111.83-3.06q8.41,46,16.85,91.91A1687,1687,0,0,0,759.21,731.64,1689.27,1689.27,0,0,0,955.3,940c-3.82,9.34-21.34,49.24-65.87,68.93-62.1,27.46-119.92-9.49-124.09-12.25-14.07,10.43-49.84,34-101.11,36.77-66.62,3.63-113.31-30.27-125.61-39.83-10.26,9.18-45.6,38.52-99.58,41.36-63.15,3.32-105.92-32.06-114.89-39.83A125.47,125.47,0,0,1,125,901.68c45.7-6.3,131.73-24.49,219.06-85.79C454.6,738.31,502.66,637,520.23,593.77l-53.61-72q-32.17,62-64.34,124.08l-121,59.75c-23.56.17-43.7-14.82-49-35.24-6.23-23.92,11.05-43.12,12.26-44.42l87.32-44.43Z" transform="translate(-101.75 -36.32)"/>
    <path class="cls-1" d="M520.23,593.77a309.7,309.7,0,0,0,124.09-42.9" transform="translate(-101.75 -36.32)"/>
    <path class="cls-1" d="M552.4,60.66C597.27,49.28,645,80.82,652,126.53c6,39.13-19.39,78.09-56.68,88.85-45.87,13.24-96.63-19.95-102.64-67.4C487.75,109.23,513.88,70.43,552.4,60.66Z" transform="translate(-101.75 -36.32)"/>
    <path class="cls-1" d="M524.83,390l15.32-87.32,208.34-42.89a195.1,195.1,0,0,1,59.74,56.68,189.36,189.36,0,0,1,16.86,30.64" transform="translate(-101.75 -36.32)"/>
    <path class="cls-1" d="M825.09,794.45A208.47,208.47,0,0,0,823.55,727c-1.64-8.65-3.64-16-24.51-68.93-8.41-21.34-19.94-50.18-32.17-87.32-5.84-17.74-9.49-27.44-9.19-41.36.47-22.21,9.72-39.82,16.88-50.59l29.08,42.93c5.79,4.13,18.09,11.58,33.7,10.72,20.74-1.14,34.16-16.23,42.89-26,34.1-38.33,34.77-92.26,34.1-112.09" transform="translate(-101.75 -36.32)"/>
</svg>