<svg xmlns="http://www.w3.org/2000/svg" viewBox="0 0 598.22 970.81">
    <title>designSvgIcon</title>
    <g id="inner-hover" >
        <path class="cls-1" fill="currentColor" d="M448.23,755.25A244.26,244.26,0,0,0,436.49,625.8s-16.89-44.44-56.17-93.6c-22.15-27.73-25.8-25.16-40.85-45.81C330.28,473.79,302,434,295.55,376.86c-7.71-68.83,21-122,33.71-142.4C371.92,166,436.32,141.4,455.89,134.88c13.48-4.48,95-30.15,181.45,12.59,23.13,11.43,76.81,42.66,107.92,107.91,26.74,56.1,22.36,107,20.59,124.94-2,20.58-4.73,47.82-21.77,76.83-9.51,16.21-21.38,29.18-45.12,55.13-3.69,4-16.21,18-31.3,37.94l-1.38,1.89a349.65,349.65,0,0,0-41.88,78.67,274.2,274.2,0,0,0-14.51,94.36Z" transform="translate(-234.01 -57.34)">
        </path>
        
    </g>
    <g id="outer">
        <path class="cls-2" fill="#333" d="M393.09,742.36a204.62,204.62,0,0,0-4.6-62.81c-2-8.48-8.5-34.07-29.11-67.4-22.05-35.68-38.21-44.62-59.74-70.47-36.76-44.13-49.94-90.45-55.15-108.77-25-87.7,1.71-164.6,7.66-180.76,4.38-11.91,56.78-147,200.68-185.36,97.92-26.07,180,8.18,214.47,26,27.69,14.35,93.69,54,133.27,134.81,45.77,93.5,39.89,208.86-4.59,271.15-3.41,4.77-17.67,24.11-36.77,47.49-38.77,47.45-51.39,55.11-64.34,82.72C686,647.93,683.31,662.69,678,691.81a479.56,479.56,0,0,0-7.66,95L399.21,844.23q-2.67-24.12-5.36-48.25L619.4,751.86a277.11,277.11,0,0,1,30.28-143.54c13-25.24,27.82-43.12,57.45-78.89,31.63-38.2,35.64-38.08,46-55.92,18.44-31.89,22.61-61.6,25.27-82,3.25-24.89,9.24-75.7-15.32-132.51-22.3-51.59-57.82-80.4-74.3-93.44-17-13.47-67.43-52.24-144-56.69-28.22-1.63-88.8-.28-148.59,39.07-65.32,43-88.55,104.25-95.75,124.08-22.78,62.84-14.31,116.56-11.49,131.75,2.89,15.56,12.62,64.8,49,108.76,15.25,18.42,23.89,22.28,44.42,49C397,580.71,411.08,599,422.19,626.7c14.68,36.58,16.87,71.19,18.38,95,.55,8.65.72,15.82.77,20.68Z" transform="translate(-234.01 -57.34)"/>
        <path class="cls-2" fill="#333" d="M454.62,459.72l.51,51.32,52.08.77q.39,113.35.77,226.72l48.25,1.53q.76-114.12,1.54-228.25h59V459Z" transform="translate(-234.01 -57.34)"/>
        <path class="cls-2" fill="#333" d="M408.4,890q2,21.94,3.94,43.87L668,882.62q-1.65-22.89-3.28-45.79Z" transform="translate(-234.01 -57.34)"/>
        <path class="cls-2" fill="#333" d="M456.23,979.13q4.93,24.51,9.88,49l138.21-28.6q-3.24-24.33-6.47-48.68Z" transform="translate(-234.01 -57.34)"/>
    </g>
</svg>