<svg xmlns="http://www.w3.org/2000/svg" viewBox="0 0 998 998">
<title>familySvgIcon</title>
<g id="bg">
<path class="cls-1" fill="currentColor" d="M44.17,44.17h910.3q-.35,455-.68,910H44.94Q44.55,499.15,44.17,44.17Z"/>
</g>
<g id="fixed">
<path fill="#333" d="M330.7,177c-25-3.24-43.41,10.62-50.25,15.78-19.94,15-26.59,35-28.62,41.34s-9.78,32.11,2.74,59.72C258.18,301.8,268,323.5,292,332c23.31,8.26,44.06-1.59,49.31-4.08,31.36-14.89,40-47.94,42-55.45,2.16-8.23,11.18-42.6-10.24-70.27C368.73,196.57,354.49,180.09,330.7,177Z"/>
<path fill="#333" d="M703.91,228.07c-1.68.1-29.36,2.11-45,25.49-14.27,21.28-8.24,44.75-4.6,58.95,3.29,12.79,9.46,36.8,31.61,47.66,15.56,7.62,30.54,4.6,33.74,3.89,27.65-6.18,39.37-33.6,41.84-39.38,8.85-20.73,11.06-52.85-9.19-75.57C748.56,245,731.12,226.55,703.91,228.07Z"/>
<path class="cls-1" fill="#333" d="M753.32,954.62c10.74-5.81,16.7-12.57,20-17.34,2.4-3.43,3.89-6.46,11-24.26,4.63-11.63,6.95-17.45,8.32-21.24,8.26-22.79,12.92-49.95,15.94-67.35,12.06-69.63,10.7-57.24,13.19-74.65,4.44-31,6.27-53.13,9.5-92.06,1.74-21.05,3.85-49.16,5.69-82.57a34.12,34.12,0,0,1,21.85,15C869.24,605.6,876,623.4,885.38,642.8c1.92,4,3.52,7.08,4.43,8.83a36.49,36.49,0,0,0,9.17,9.82c2.55,1.86,4.45,3.22,7,3.27,4.43.1,7.82-3.72,9.36-5.51,12.31-14.29,13.86-39.28,13.86-39.28.44-7,1.06-25.82-6.88-53.65a228.7,228.7,0,0,0-16.09-40.64c-8.5-16.95-22.73-45.31-49.16-71.66-12.93-12.89-52.14-50.88-115-60-18.33-2.67-55.54-7.58-96.41,11.3-33.49,15.48-59,42.12-71,65.55-3.36,6.57-10.14,21.64-16.28,36.93-4.91,12.2-8.55,22.42-10.93,29.35-.78,1.56-2,3.93-3.59,6.77-2.68,4.78-5.38,9.15-22.13,30-4.48,5.59-6.85,7.51-9.64,7.26s-5-2.92-6.08-4.68c-1.45-2.74-3.57-6.73-6.14-11.52-8.9-16.58-22.76-42.35-40-71.82-23.59-40.21-27-42.05-51-80.42a254.84,254.84,0,0,0-18.63-24.9,67.11,67.11,0,0,0-11.07-11.19,62.06,62.06,0,0,0-18.83-9.69c-25.63-8.47-58.15-6.07-58.15-6.07-15.86,1.17-38.33,2.82-64.16,14.05-36.54,15.87-57.3,41.09-75.63,63.37-11.89,14.45-22.48,32.14-43.66,67.53-4.55,7.61-13.9,24.95-32.6,59.65a256.59,256.59,0,0,0-17.44,39.41s-3.62,10.53-6.15,34.73c-.58,5.52-.94,10.85,2.24,15.82,4.2,6.59,11.89,8.34,13.61,8.69A22.77,22.77,0,0,0,90.84,663a26.23,26.23,0,0,0,10.26-7.13c8.38-9,18.32-16.33,27.07-24.92a245,245,0,0,1,25.79-22,5.33,5.33,0,0,1,2.55-1.37,5.46,5.46,0,0,1,3.73.59c.71,3.2,1.78,8.09,3.08,14.05,13.74,63.18,16.36,80.48,24.24,116.94,9.08,42.07,6.28,22.18,26.42,106.21,5.56,23.18,9.25,39.19,19.2,59.72A219,219,0,0,0,269.4,958Z"/>
<path class="cls-1" fill="#333" d="M953.79,954.13q.33-455,.68-910H44.17q.39,455,.77,910H933.36l1,43.87H0V0H998V998H934.38l-1-43.87Z"/>
</g>
<g id="man">
<path class="cls-1" fill="#ec83b8" d="M364.86,845.65c-2.23.06-5.21.13-8.05,2.2a11.81,11.81,0,0,0-3.95,5.19,76.25,76.25,0,0,0-1.88,8.81,81.05,81.05,0,0,0-.8,16.19c.37,10,0,20,.14,30,.31,24.91.36,26,.62,28a79,79,0,0,1,.63,11.23c0,3.43-.06,5.15-.44,6.42-1.73,5.85-9.15,11.23-16.26,10.65s-11.19-6.79-15.36-13c-2.63-3.93-4.33-7.73-7.46-17.34-3.34-10.3-5-15.46-6.94-24.37-3.5-16.17-3.95-25.67-6.33-47.38-1.2-10.9-.49-3.07-4.4-35.34-2.42-20-5.73-48.08-9.59-83.17a68.63,68.63,0,0,0-19.18,17.11,58.09,58.09,0,0,1-11,12,36.58,36.58,0,0,1-9.53,5.58,22.29,22.29,0,0,1-8.39,1.81,13.43,13.43,0,0,1-4.63-.65,13.27,13.27,0,0,1-6.63-5.85c-4.24-6.78-2.35-16.17-1.86-18.46,4.52-21.09,15.2-40.41,15.43-40.83C261.4,674,257.74,680.25,261.3,674.1c18.49-31.91,23.85-39.46,29.51-46.53,12.39-15.49,20.14-21.12,25-24.23A88.68,88.68,0,0,1,343,592c8.33-1.94,14.77-2.15,25.9-2.51,8.83-.28,14.89-.48,22.8.56a89.42,89.42,0,0,1,26.74,7.46C434,604.76,443,615.32,451,624.75a190.32,190.32,0,0,1,19.19,27.62c3.35,5.79,6.16,11.35,12.09,20.13,4.54,6.74,8.45,11.71,14.43,16.27,3.94,3,7.54,5.67,12.82,6.12,1.22.11,6.52.44,13.45-3.78,9.44-5.74,13.57-14.85,16.69-21.4a492,492,0,0,1,26.4-46.65c5.52-8.68,11.65-17.42,21.15-24.1a50.89,50.89,0,0,1,15.9-7.61A61.06,61.06,0,0,1,614,589.78c8.36-.77,14.62-.63,26.81-.33a129.3,129.3,0,0,1,13.36.76A97.06,97.06,0,0,1,666,592.38a87.92,87.92,0,0,1,19.85,7.9c8.21,4.43,16.31,10.36,25.58,19.56,5.22,5.2,15.87,16.75,38.57,52.62,11.5,18.18,6.86,12.25,29.71,53.73a79.5,79.5,0,0,1,8.41,23.09,45.42,45.42,0,0,1,1,10.57c-.16,4.63-.58,16.85-7.44,20.57-8,4.34-20.47-5.15-23.89-7.75-2.94-2.24-7-6.71-15.26-15.63-3.16-3.44-5.75-6.32-7.51-8.3a4.78,4.78,0,0,0-1.77-1.23,3.53,3.53,0,0,0-2.12-.28,3.13,3.13,0,0,0-1.43.8,7.43,7.43,0,0,0-2.09,3.56,34.58,34.58,0,0,0-1.4,6.79c-.21,9.45-1.73,18.82-2.42,28.24-.25,3.55-.42,4.73-1.84,16.81-4.76,40.52-4.38,40.21-6,52.45-2.47,18.32-4.65,34.52-9.82,54.8a349.13,349.13,0,0,1-14.34,43.93l-31.87-.78a211.42,211.42,0,0,1,.53-42.65c1.13-9.66,1.41-19.41,2.39-29.1a95.15,95.15,0,0,0-.62-18.61c-.46-3.9-1-6.47-2.65-9.18a18.44,18.44,0,0,0-9.3-7.43,17.2,17.2,0,0,0-11.56-.2,14.71,14.71,0,0,0-6.5,4.49,18.45,18.45,0,0,0-2.47,4.57,51.43,51.43,0,0,0-2.94,9A57.53,57.53,0,0,0,625.51,877a86.84,86.84,0,0,0,.7,9.85c1.22,11.66,1.4,12.46,1.75,16.2.82,8.55.95,15.14,1.06,20.59.13,6.52.19,9.78-.11,13.85a94.68,94.68,0,0,1-2.76,16.75l-241-.3a31.81,31.81,0,0,1-3.58-8.78,33,33,0,0,1-.44-12.72c2-14,3.79-31.07,4.49-40.27a129.94,129.94,0,0,0-.38-25.73c-.11-.88-.2-1.61-.26-2.06a28,28,0,0,0-2.39-7.8,17.66,17.66,0,0,0-7.85-8.47A19.78,19.78,0,0,0,364.86,845.65Z"/>
<path class="cls-1" fill="#ec83b8" d="M388.32,472.23c-21.27-1.57-35.73,13-37.51,14.91-13.13,13.72-13.45,30.53-13.56,36.09a59.16,59.16,0,0,0,12.43,37c4.27,5.56,10.53,13.72,21.63,16.47,9.11,2.25,16.76-.31,21.17-1.79,16-5.38,24.63-17.69,26.88-21a58.72,58.72,0,0,0,6.91-50.7c-1.69-5.08-4.9-14.34-14-21.76A42.7,42.7,0,0,0,388.32,472.23Z"/>
<path class="cls-1" fill="#ec83b8" d="M613.43,473.2c-16.07,4.05-23.88,18-25.26,20.42-12.07,21.5-.94,45.51,2.32,52.57,3.51,7.57,9.67,20.87,24.39,27.47,3.22,1.44,14.51,6.31,27.28,2.26,13.79-4.38,20.27-16.3,24.1-23.35,3.11-5.72,14.92-27.46,4.73-49.68-8.06-17.6-24.76-24.22-30.15-26.35C634.7,474.1,625.05,470.28,613.43,473.2Z"/></g></svg>