<svg id="圖層_1" data-name="圖層 1" xmlns="http://www.w3.org/2000/svg" viewBox="0 0 823.5 995.26">
    <defs>
        <style>.cls-1{fill:none;stroke:#231815;stroke-miterlimit:10;stroke-width:44px;}</style>
    </defs>
    <title>movieIcon</title>
    <path class="cls-1" d="M206,449.73,153.62,324.14,807.11,49.73l58.14,122.09Z" transform="translate(-124.87 -21.31)"/><line class="cls-1" x1="307.95" y1="198.02" x2="302.14" y2="321.28"/><line class="cls-1" x1="157.73" y1="264.04" x2="151.91" y2="387.29"/><line class="cls-1" x1="460.95" y1="133.37" x2="455.13" y2="256.62"/><line class="cls-1" x1="620.25" y1="66.66" x2="614.44" y2="189.91"/>
    <path class="cls-1" d="M507.28,463.39,450.09,583.9" transform="translate(-124.87 -21.31)"/>
    <path class="cls-1" d="M678.08,463.39q-28.59,60.26-57.19,120.51" transform="translate(-124.87 -21.31)"/>
    <path class="cls-1" d="M844.06,463.39q-28.6,60.26-57.19,120.51" transform="translate(-124.87 -21.31)"/>
    <path class="cls-1" d="M339.79,463.39Q311.2,523.65,282.6,583.9" transform="translate(-124.87 -21.31)"/><rect class="cls-1" x="78.44" y="433.01" width="723.06" height="540.26"/>
    <path class="cls-1" d="M220.68,596.28H910" transform="translate(-124.87 -21.31)"/>
    <path class="cls-1" d="M292.17,760.71H615.91" transform="translate(-124.87 -21.31)"/>
    <path class="cls-1" d="M292.17,872H615.91" transform="translate(-124.87 -21.31)"/>
</svg>