<svg xmlns="http://www.w3.org/2000/svg" viewBox="0 0 1002.55 637.2">
<title>travelSvgIcon</title>
<g id="fixed">
<path class="cls-1" fill="#333" d="M205.32,143.83l30-.51c0,1.43.07,3.54.31,6.09.52,5.49.81,8.6,2.41,12.12a24.61,24.61,0,0,0,7.49,9.19,27.27,27.27,0,0,0,10.21,4.6,35.24,35.24,0,0,0,4.77.85,124,124,0,0,0,16.34.85q-.69-40.68-1.36-81.36l283,.6q.78,40.55,1.57,81.1l28.3-.36a16.9,16.9,0,0,0,10.26-15.3,18.27,18.27,0,0,0-1.2-7l28.17-10.58a53.35,53.35,0,0,1,2.79,13.62,47.91,47.91,0,0,1-.22,9.86c-.5,3.83-1.62,12.58-8.14,20.74a37.89,37.89,0,0,1-18.94,12.49l-70.29.85q-.9-37.78-1.79-75.57l-222.79-.36,1.09,51.63,222.91,0,.58,24.26-283.92,1.53A48.37,48.37,0,0,1,228,195.32c-11.88-8.35-16.44-19.79-18.64-25.53A63,63,0,0,1,205.32,143.83Z" transform="translate(0 -0.15)"/>
<path class="cls-1" fill="#333" d="M217.49,478.77a49.42,49.42,0,0,1,24.68.89,50.62,50.62,0,0,1,36,48.08c-.1,17.8-10.08,29.7-13.28,33.2-4.18,4.57-14.63,14.31-31.06,16.08a49.54,49.54,0,0,1-32.42-8.13c-2.56-1.68-17.37-11.74-21.71-31.25a49.11,49.11,0,0,1,.63-23.88,50.42,50.42,0,0,1,18.18-26.27l-24.42-18.38a77.86,77.86,0,0,0-21,84.08,81.92,81.92,0,0,0,62.3,52.94A81.49,81.49,0,0,0,295,570.72c3.8-5.77,16.49-26.72,12.39-55-4.12-28.45-22.44-45-28.05-49.69a79.88,79.88,0,0,0-79.42-13.23,79.07,79.07,0,0,0-25.85,16.3l24.42,18.38A49.49,49.49,0,0,1,217.49,478.77Z" transform="translate(0 -0.15)"/>
<path class="cls-1" fill="#333" d="M761.74,448.26,765.83,478a45.9,45.9,0,0,1,20.43,2.13,47.28,47.28,0,0,1,20.51,14.38,52.71,52.71,0,0,1,12,24.17,51.37,51.37,0,0,1-22,51.83,43.66,43.66,0,0,1-17,7c-14.16,2.44-25.29-3.19-29.28-5.27a51.55,51.55,0,0,1-22.32-23.45,50.44,50.44,0,0,1-5-18.7,49.86,49.86,0,0,1,3.56-20.85c1.27-3.19,8.42-20.19,26.63-27.9A46.69,46.69,0,0,1,765.83,478l-4.09-29.78a78.93,78.93,0,0,0-30,10.8,83.55,83.55,0,0,0-35.4,46.39,79.41,79.41,0,0,0-2.47,31.83c3.69,29.11,22.72,46.81,26.51,50.21a77.1,77.1,0,0,0,40.85,19.66,76.18,76.18,0,0,0,44-7,79.68,79.68,0,0,0,25.28-20,81.42,81.42,0,0,0-21.57-122.18A79.14,79.14,0,0,0,761.74,448.26Z" transform="translate(0 -0.15)"/>
<path class="cls-1" fill="#333" d="M628.17,607.53v29.82h374.38V607.49Z" transform="translate(0 -0.15)"/>
<path class="cls-1" fill="#333" d="M439.74,607.53q.08,14.91.13,29.82H562.6l.34-30Z" transform="translate(0 -0.15)"/>
<path class="cls-1" fill="#333" d="M0,606.64v30.71H360.89q-.17-15.36-.34-30.71Z" transform="translate(0 -0.15)"/>
</g>
<g id="car">
<path class="cls-1" fill="currentColor" d="M881,549.48l74.21.34a63.25,63.25,0,0,0,36.93-39.15q.76-50.9,1.54-101.78a129.41,129.41,0,0,0-38.21-44.65,135.76,135.76,0,0,0-31.37-16.67,167.68,167.68,0,0,0-52.65-11.47c-2.58-.21-6.47-.5-11.22-.74-4.52-.22-7.72-.29-8.81-.32a171.82,171.82,0,0,1-26.34-3.29A203.4,203.4,0,0,1,799.8,325a266.79,266.79,0,0,1-28.22-10.9C746.9,302.9,729.4,290,718.41,281.85a362,362,0,0,1-40.67-35.46c-1-1.06-3.9-4-8-8-2.25-2.16-10.14-9.67-19.76-17.38a296.21,296.21,0,0,0-36.68-24.86l-200,3.76-1.2,141.23,31.59.57v-94A14.11,14.11,0,0,1,454,238.48l106.72.77a308.34,308.34,0,0,1,99.58,87.32,20.88,20.88,0,0,1,.62,7.66,20.47,20.47,0,0,1-5.43,11.84,20.2,20.2,0,0,1-7.23,4.83l-195.32.26a22.41,22.41,0,0,1-9.19-9.45l-31.59-.57a13.15,13.15,0,0,1-3,5.82,13.4,13.4,0,0,1-8,4.16l-191.23-1.28A25.94,25.94,0,0,1,204,325.59l74-73.12a54.61,54.61,0,0,1,9.62-7.2,55.22,55.22,0,0,1,20.08-7h97.54a13.12,13.12,0,0,1,4,2.37,13.27,13.27,0,0,1,3.68,5.29q.22-23,.44-46l-177.93-.33a85.55,85.55,0,0,0-23.82,22c-2.24,3.07-5.52,7.51-9.57,12.81-8.42,11-14.18,18.57-21.18,26.41a202,202,0,0,1-28.32,26.74c-7,5.43-15.23,11.66-27.56,17.15a136.59,136.59,0,0,1-17.33,6.15,252.18,252.18,0,0,1-41.72,8.8c-3.16.41-5.76.68-7.44.85A69.47,69.47,0,0,0,46,323.28a57.91,57.91,0,0,0-18.4,9.12,52,52,0,0,0-16.49,21.41,49.59,49.59,0,0,0-3.47,16.74Q8.1,443,8.53,515.46A46,46,0,0,0,20.64,537.7a45.55,45.55,0,0,0,17.85,11.1l79.32,1c-2.54-14.5-5.12-42.5,8.51-69a128.4,128.4,0,0,1,16.13-23.5,125.22,125.22,0,0,1,31.38-27.56c7.15-4.32,25.58-15.17,51.57-16.34,31.4-1.4,54.13,12.19,62.63,17.43,4.62,2.86,33,20.91,47.57,56.47a114.5,114.5,0,0,1,4.49,13.22q.35,24,.68,48H659.24a118.78,118.78,0,0,1,5.16-59.38c3.85-10.73,18.51-46.57,57.92-65.11,48.61-22.87,94.25-.34,99.92,2.59,6.29,3.24,44.67,23.81,57.42,69.48A111.55,111.55,0,0,1,881,549.48Z" transform="translate(0 -0.15)"/>
</g>
<g id="gift">
<path class="cls-1" fill="#630834" d="M348.62,96q.25-23.49.53-47a22.55,22.55,0,0,1,11.36-16.71l42-.1q-3.92-5.37-7.82-10.76c-2.61-6-2-12.63,1.58-16.54,5.18-5.61,16.65-5.69,24,2.55l16.08,16.08,16.37-19c7.19-6.19,17.34-5.5,22.43.19,3.75,4.19,4.49,10.78,1.91,16.62l-8.33,10.78,42-.14A14,14,0,0,1,523.05,46q.36,25,.73,50.05Z" transform="translate(0 -0.15)"/>
</g>
</svg>