<svg id="圖層_1" data-name="圖層 1" xmlns="http://www.w3.org/2000/svg" viewBox="0 0 596.85 950.31">
    <defs>
        <style>.cls-1{fill:none;stroke:#231815;stroke-miterlimit:10;stroke-width:44px;}</style>
    </defs>
    <title>designIcon</title>
    <path class="cls-1" d="M419.13,724c-1.62-46.38-13.26-79-23-99.58-10.65-22.53-19.32-31.24-65.87-96.51-26.27-36.82-39.4-55.24-42.9-61.27-42-72.63-32.26-153.32-30.64-165.45,16.38-122.28,113.4-186.23,124.09-193,71.86-45.68,143.89-43.32,168.51-41.36a277.82,277.82,0,0,1,131.75,45.95c14.81,9.9,106.17,73.1,122.55,191.49,3.66,26.47,13.52,97.77-25.75,156.4-4,5.91-19.32,27-50.85,68.8-39.2,51.93-49,62.72-61.27,88.85-3,6.4-22.15,47.82-20.39,79.69.14,2.53,1.06,16.76,3.53,35.2,1.13,8.39,2.26,15.28,3.07,19.92L406.87,805.17" transform="translate(-232.62 -43.95)"/>
    <path class="cls-1" d="M462,469.68l150.13,1.53" transform="translate(-232.62 -43.95)"/>
    <path class="cls-1" d="M534,722.45l1.59-252" transform="translate(-232.62 -43.95)"/>
    <path class="cls-1" d="M397.68,912.4l274.21-56.68" transform="translate(-232.62 -43.95)"/>
    <path class="cls-1" d="M492.4,972.66,634.65,945" transform="translate(-232.62 -43.95)"/>
</svg>