<svg id="圖層_1" data-name="圖層 1" xmlns="http://www.w3.org/2000/svg" viewBox="0 0 998 998">
    <defs>
        <style>.cls-1{fill:none;stroke:#231815;stroke-miterlimit:10;stroke-width:44px;}.cls-2{fill:#231815;}</style>
    </defs>
    <title>familyIcon</title>
    <rect class="cls-1" x="22" y="22" width="954" height="954"/>
    <path class="cls-2" d="M340.32,215c5.28-1.48,29.22-7.45,50.55,6.13,23.67,15.07,27,43.35,28.34,54.38.93,7.82,4.64,47.87-25.27,75.07-4.6,4.18-27.75,25.23-57.45,19.91-30.79-5.51-49-35.85-53.62-59.74C274.88,269.4,303.45,225.38,340.32,215Z" transform="translate(-34.34 -35.64)"/>
    <path class="cls-2" d="M722.53,266.36c-20,6.57-29.54,22.68-32.17,27.58-16,29.72,1.12,62.4,6.13,72,6.29,12,15.44,29.57,34.47,34.46,17.9,4.61,33.57-4.81,38.29-7.66,20.34-12.22,26.59-33,29.11-41.36,2.69-8.93,8.89-29.5-1.53-51.32-9.6-20.09-27.19-28.48-32.17-30.63C758.76,266.87,742.07,259.93,722.53,266.36Z" transform="translate(-34.34 -35.64)"/>
    <path class="cls-2" d="M962.28,626.62a224.15,224.15,0,0,0-25.54-72.51c-14.36-26-35.82-64.89-82.12-94.3-12.81-8.14-41.83-26.15-84.09-31-15.57-1.78-54.39-5.7-96.34,14.81-10.86,5.31-28.6,14.2-44.76,32.51-20.95,23.73-32.7,55.87-47.58,96.59,0,0-3.87,10.61-27.57,39.32-1.38,1.67-4.28,5-7.79,4.73-3-.27-5-3-5.89-4.41-4.47-8.36-11.17-20.84-19.46-35.9C495.28,529.43,473.7,492.82,447.81,455,423.89,420.13,417,414.46,410,410.11c-27.18-16.93-57.56-14.77-78.64-13.28-38.18,2.71-65.45,16.29-71.49,19.4C226.44,433.46,209.75,456,177.17,500c-6.37,8.6-7,10-62.3,111.32,0,0-10.77,19.74-16.34,51.06-3.23,18.19-2,26.52,3.07,31.66,7.39,7.47,20.1,5.35,21.44,5.11,5.65-1,7.31-3.13,30.64-24.51,20.32-18.62,21.25-19,22.81-22.13a23.31,23.31,0,0,1,7.83-8.85c1.63-1.07,5-3.2,7.83-2,2.37.95,3.31,3.74,3.74,5.1,4.07,12.67,6.1,19,6.13,23.83.3,52.56,21.94,102.8,32.85,154.21,5,23.68,12.89,59.68,27.58,101.11,4.45,12.57,11.53,31.28,27.06,51.06,8.17,10.41,17.46,22.25,32.17,30.64,43.11,24.6,103.1,2.71,103.66-9.19.18-3.71-5.5-5.28-8.68-14.81-2.35-7-1.57-13-1-17.36,3-23.87,4.51-35.81,4.59-46,.13-14.22.25-28.5-9.19-35.23-5.51-3.93-14.24-5.24-19.91-1.53-4,2.61-6.62,7.8-6.64,32.68,0,45.3,1,59.74,1,59.74.56,7.68,1.36,16.59-4.16,21.28s-13.7,2.47-14.08,2.36c-7.33-2-13.17-8.94-20.06-27.72a194.37,194.37,0,0,1-10.72-44.43c-3.1-30.35-7.59-60.54-10.72-90.89-1.39-13.46-3.55-33.16-6.64-57.19a130.49,130.49,0,0,0-11.24,9.19c-14.26,13-16.33,20.79-27.06,25-3,1.17-10.92,4.31-16.85.51-7.26-4.64-6.72-16.61-6.64-18.38a29.66,29.66,0,0,1,3.06-11.75c13.4-26.93-8.89,5,23.49-53.1,18.46-33.15,27.69-49.72,34.73-58.73,14.27-18.27,23.86-30.55,41.87-38.8,16.86-7.73,32.5-8,44.94-8.17,13.68-.22,28.64-.46,45.44,7.14,18.39,8.32,29.12,21.56,35.24,29.11,8.2,10.13,18.75,26.64,26.19,40a93.72,93.72,0,0,0,13.64,18.17c8.43,8.85,13.06,10.26,15.83,10.73,6.76,1.13,12.4-1.78,14.8-3.07,10.67-5.68,14.37-15.64,20.94-29.1,4-8.2,13-26.54,25.53-42.9,9.53-12.47,16.13-20.88,28.09-26,9.12-3.93,17-4,32.68-4.08,15.41-.1,26-.17,38.81,3.57,21.68,6.33,35.45,19.39,44.93,28.6,8.9,8.63,15.81,19,29.62,39.83,11.23,16.9,17.52,28.28,27.44,46.23,5.09,9.21,10.39,19.18,14.94,32.91,1.73,5.21,6.92,21.74,1.53,33.71-1.78,3.95-3.83,5.44-5.1,6.12-5,2.71-11.65.28-13.79-.51a25.9,25.9,0,0,1-3.32-1.5,160.52,160.52,0,0,1-17.1-15.86c-9.17-9.82-12.8-16.17-16.34-15.32-4.72,1.13-5.39,14.06-5.62,18.39-1.38,25.13-6.36,50-8.17,75.06a420.43,420.43,0,0,1-11.24,70,345.61,345.61,0,0,1-20.93,59.23l-17.36-7.15-7.66-2.55c-.08-1.54-.17-3.74-.26-6.38-.6-17.95,0-31.63.18-36,.19-4,.51-10.87,1.35-19.89.67-7.15,1.26-11.41,1.53-19.15a82.21,82.21,0,0,0-.76-15.32c-1-6.92-2.26-9.06-3.06-10.21a17.65,17.65,0,0,0-9.71-6.64c-1.11-.31-9.05-2.4-15.06,2.3-3,2.39-4.18,5.4-5.87,10A46.1,46.1,0,0,0,660,908c-.51,7.93.36,11.93,1.53,23.49,1.44,14.15,1.72,23.7,1.79,26.3.19,7.56.3,11.86-.26,17.61a95.52,95.52,0,0,1-5.36,23.49l47.23,23.49L783,992.49a57.43,57.43,0,0,0,13-7.66c11.56-9.05,16.72-20.44,21.45-32.17,13.21-32.72,16.09-46.72,16.09-46.72,21-102.24,24.51-134.05,24.51-134.05,4.8-43.57,9.79-97.9,13.27-161.1a33.7,33.7,0,0,1,9.7,3.57c5.26,2.92,9.15,7,14,14.3,3.47,5.2,5.83,9.62,12.83,24.7,3.58,7.71,7.4,15.31,10.91,23s5.8,13.1,11.49,18.13c3,2.69,6.53,5.78,10.72,5.62,8.19-.32,13.69-12.79,16.09-18.38C966.83,659.2,963.87,636.43,962.28,626.62ZM439,604.15c-4.38,2.94-14.78,9.91-28.26,8.17-11.05-1.43-18.2-8-21.79-11.23-17.32-15.83-17.4-38.69-17.36-42.22.07-5.49.26-20.74,11.58-34,.92-1.09,16.25-18.51,39.49-17A41.11,41.11,0,0,1,440,512.57c21.48,11.62,23.69,39.36,23.83,41.54C465.18,575.32,453.68,594.27,439,604.15ZM702.45,584.4c-3.34,7.08-11.2,23.77-28.6,27.92-14.93,3.56-27.47-4.35-30.3-6.13-16.91-10.66-20.75-29.65-22.81-39.83-2.28-11.28-5.37-26.59,3.75-40.51.73-1.11,11.32-16.74,29.28-18,5.81-.42,10.16.82,14.29,2,7.4,2.19,26.55,7.85,36.09,26.21C715.2,557.33,704.86,579.28,702.45,584.4Z" transform="translate(-34.34 -35.64)"/>
</svg>