<svg id="圖層_1" data-name="圖層 1" xmlns="http://www.w3.org/2000/svg" viewBox="0 0 1002.55 637.35">
    <defs>
    <style>.cls-1,.cls-2{fill:none;stroke-miterlimit:10;}.cls-1{stroke:#e60012;stroke-width:44px;}.cls-2{stroke:#231815;stroke-width:30px;}.cls-3{fill:#231815;}</style>
    </defs>
    <title>travelIcon</title>
    <path class="cls-1" d="M1292.32,477.34" transform="translate(-40.23 -296.52)"/>
    <path class="cls-2" d="M40.23,918.53H401.77" transform="translate(-40.23 -296.52)"/>
    <path class="cls-2" d="M668.32,918.87h374.47" transform="translate(-40.23 -296.52)"/>
    <path class="cls-2" d="M479.72,918.87,603,918.53" transform="translate(-40.23 -296.52)"/>
    <path class="cls-2" d="M264.4,759.21c34.89-2.18,67.05,25,68.94,61.28C335.25,857,305.6,888,269.77,888.66c-38.12.69-68.51-33.21-65.88-69.7C206.16,787.58,232.34,761.22,264.4,759.21Z" transform="translate(-40.23 -296.52)"/>
    <path class="cls-2" d="M811.3,759.21c36-.18,64.18,32.13,63.57,66.64-.56,32-25.72,60.86-57.44,63.58-37.49,3.2-71-31.29-68.94-68.94C750.23,788.58,777.22,759.38,811.3,759.21Z" transform="translate(-40.23 -296.52)"/>
    <path class="cls-2" d="M260.32,440.06c.15,10.41,2.14,26.74,13.79,37.28,9.59,8.68,21.72,9.82,27.57,10.21,29.23,2,156.47,2.62,329.87,1a33.37,33.37,0,0,0,18.39-15.31c7-12.83,2.48-25.43,1.77-27.32" transform="translate(-40.23 -296.52)"/>
    <path class="cls-2" d="M332.57,478.87q-.74-35.82-1.49-71.63l252.73.4,1.53,72" transform="translate(-40.23 -296.52)"/>
    <path class="cls-3" d="M388.83,397q.09-24.42.17-48.85a23.18,23.18,0,0,1,11.74-19.32L551,328.49a14.29,14.29,0,0,1,8.55,4.34,14.81,14.81,0,0,1,3.58,11.74l1,54.64Z" transform="translate(-40.23 -296.52)"/>
    <path class="cls-3" d="M449,337.17,435.72,319.3a13.68,13.68,0,0,1-3.06-7.92,13.46,13.46,0,0,1,3.83-9.95c3-2.9,6.66-3.25,10.21-3.58a15,15,0,0,1,6.9.51,13.92,13.92,0,0,1,6.89,5.62l16.08,16.08,14.3-17.1a19.76,19.76,0,0,1,8.43-5.36c2.08-.66,6.45-2.05,11.23,0a14.38,14.38,0,0,1,6.9,6.38,14.94,14.94,0,0,1,1,11,15.87,15.87,0,0,1-5.88,8.42l-9.44,13.53Z" transform="translate(-40.23 -296.52)"/>
    <path class="cls-3" d="M1005.68,668.66c-26.6-23.54-57.62-29.73-80.68-34-29.59-5.54-31.6-.27-61.62-6.81A262.19,262.19,0,0,1,804.15,607c-29.11-14.31-48.66-30.73-65.36-44.93-24.73-21-27.53-28.4-51.07-46.47a320.27,320.27,0,0,0-43.4-28.09l-349.5-.76a98.43,98.43,0,0,0-25.31,13.53C257.07,509.57,252.05,518,241.43,532c-11.18,14.67-24.08,31.59-41.88,46.47-10.67,8.92-23.14,19.34-42.38,26-11.3,3.93-35.31,10.2-55.66,12.25A71.42,71.42,0,0,0,82.79,621a55.29,55.29,0,0,0-17,9.53,48.59,48.59,0,0,0-17.71,42.21c.94,18.35.85,67.55.68,139.24a49.87,49.87,0,0,0,7.83,16.34,50.92,50.92,0,0,0,22.13,17l79.32,1a102.42,102.42,0,0,1-.68-42.89c4.79-23.93,17-39.38,23.15-47,7.71-9.52,34.59-42.75,81.36-46.3C310,706.53,342.56,737.1,350,744.57A119.84,119.84,0,0,1,380.32,797q.35,24,.68,48H699.47c-1.56-9.11-6.58-44.85,15.32-80.68,6-9.79,26.7-40.41,67.4-51.06,47.73-12.5,85.56,12.27,92.94,17.36,4.25,2.93,31.76,22.41,42.89,55.66a119.66,119.66,0,0,1,5.62,30.12A115.13,115.13,0,0,1,921.26,846l74.21.34a59.41,59.41,0,0,0,36.93-39.15l1.54-101.78A124.59,124.59,0,0,0,1005.68,668.66ZM452.57,636.4a12.95,12.95,0,0,1-11.23,11.24l-191.23-1.28a26.56,26.56,0,0,1-6.64-14.55,25.62,25.62,0,0,1,.76-9.7c39.51-41,69.71-70.06,78.13-76.6a59.27,59.27,0,0,1,14.55-8.17,49.5,49.5,0,0,1,11-2.55q22.17-.24,44.68-.26,26.69,0,52.86.26a13.08,13.08,0,0,1,7.66,7.66ZM698.45,639a20.45,20.45,0,0,1-10,8.42l-195.32.26a22.43,22.43,0,0,1-5.36-4.09,22,22,0,0,1-3.83-5.36v-94A14.1,14.1,0,0,1,494.19,535l106.72.77a287.34,287.34,0,0,1,99.58,87.32A20.9,20.9,0,0,1,698.45,639Z" transform="translate(-40.23 -296.52)"/>
</svg>