<svg id="圖層_1" data-name="圖層 1" xmlns="http://www.w3.org/2000/svg" viewBox="0 0 822.72 970.17">
    <defs>
        <style>.cls-1,.cls-2,.cls-4,.cls-5,.cls-6{fill:none;stroke-miterlimit:10;}.cls-1,.cls-2,.cls-5,.cls-6{stroke:#231815;}.cls-1{stroke-width:74px;}.cls-2{stroke-width:31px;}.cls-3{fill:#231815;}.cls-4{stroke:#e60012;stroke-width:44px;}.cls-5{stroke-width:27px;}.cls-6{stroke-width:28px;}</style>
    </defs>
    <title>artIcon</title>
    <rect class="cls-1" x="37" y="37" width="748.72" height="896.17"/>
    <path class="cls-2" d="M265.87,194.15l554.7,2.25q1,357.86,2.08,715.71l-560.41,2Z" transform="translate(-128.64 -67.79)"/>
    <path class="cls-3" d="M389.15,730.32q1.61-87.3,3-174.59,1.13-69,2.14-137.91a178.58,178.58,0,0,1,40.61-77.9c9.89-11,42-45.78,97.25-55.8,47.45-8.6,85.75,5.55,104.73,14.74a178.63,178.63,0,0,1,68.65,59.21,148.87,148.87,0,0,1,17,32,154.79,154.79,0,0,1,9.68,44.59c2.32,30.62,3.52,145.36,1.17,301.79a157.68,157.68,0,0,0-97.61-39.65q-2.67-129.49-5.35-259a45.71,45.71,0,0,0-11.13-21.88c-14.17-15.16-33.9-14.12-37-13.91H438.13a106.33,106.33,0,0,0-16.42,12.13,109.18,109.18,0,0,0-28.48,41.49q-.53,52.14-1,104.28a130.84,130.84,0,0,0,26.7,45.28,135.11,135.11,0,0,0,59.85,37.9q-.54,25.26-1.07,50.53-16.82,7.43-34.2,14.74Q415.9,720,389.15,730.32Z" transform="translate(-128.64 -67.79)"/>
    <path class="cls-4" d="M1292.32,477.34" transform="translate(-128.64 -67.79)"/>
    <path class="cls-5" d="M750,901.39c1.22-20.31,1.68-42.16,1-65.36-.37-12.73-1.06-25-2-36.77a145.43,145.43,0,0,0-12-33.7c-3.78-7.52-13.69-26.71-33.07-42.9-28.29-23.61-60.19-27-73.17-27.57l-7-240c-.06-2.62-.7-18.77-14-30.64a41.54,41.54,0,0,0-30.07-10.21l-132.3-1a29.52,29.52,0,0,0-14,2c-9.61,4-14.15,12.29-18.05,19.4a76.23,76.23,0,0,0-9,32.68l-1,86.81a114.73,114.73,0,0,0,19,38.81c14.31,18.86,30.94,28.16,41.1,33.7,6.91,3.78,16.84,9.2,30.07,12.26,30.72,7.11,56.8-3.69,65.15-7.15C610.77,611,629.61,559.23,632.8,550" transform="translate(-128.64 -67.79)"/>
    <path class="cls-5" d="M488.72,637.1q-.17,30.52-.34,61a340.2,340.2,0,0,0-47.11,18.39c-25.87,12.39-44.91,21.51-62.14,39.83-21.87,23.25-29.12,48.91-36.08,73.53a251.86,251.86,0,0,0-9,81.7" transform="translate(-128.64 -67.79)"/>
    <path class="cls-6" d="M374.12,909.56A77.57,77.57,0,0,1,394.67,882c7.29-6.16,16.88-14.26,30.57-14.3,3.56,0,14.35-.09,22.55,8.18a29.09,29.09,0,0,1,7.58,14.39l-.06,19.31" transform="translate(-128.64 -67.79)"/>
    <path class="cls-6" d="M391.25,885.07q1.42-29.55,4.42-61.3c3.19-33.24,7.51-64.61,12.53-94a183.7,183.7,0,0,0,28.06,18.39,177.71,177.71,0,0,0,48.11,17.36c13.91,2.72,44.37,8.3,78.68-4.09,42.83-15.46,65.07-49.32,72.17-61.27" transform="translate(-128.64 -67.79)"/>
    <path class="cls-6" d="M694.35,720.62a251,251,0,0,0-39.09,32.17c-5.85,5.91-27.64,28.49-46.6,64.85a290.61,290.61,0,0,0-29.57,91.41" transform="translate(-128.64 -67.79)"/>
</svg>